<?xml version="1.0" encoding="utf-8"?>
<svg id="master-artboard" viewBox="0 0 1096 780" version="1.1" xmlns="http://www.w3.org/2000/svg" x="0px" y="0px" style="enable-background:new 0 0 1096 780;" width="1096px" height="780px">

<path d="M905.7,359.9l55.7-55.7c0,0,0-178.7,0-203.5c0-24.8-8-40.7-34.5-40.7c-26.5,0-154,0-167.2,0c-13.3,0-36.3,6.2-36.3,32.7&#10;&#9;&#9;&#9;c0,26.5,0,191.1,0,216.8c0,25.7,5.3,50.4,38,50.4C794.2,359.9,905.7,359.9,905.7,359.9z" transform="matrix(0.9999999999999999, 0, 0, 0.9999999999999999, -294.4626878176102, 131.4966977091907)"/><path class="st0" d="M886.7,340c0,0,0-13.9,0-24.6c0-10.6,8-31.2,28.5-31.2c20.6,0,27.2,0,27.2,0s0-166.6,0-177.8&#10;&#9;&#9;&#9;c0-11.3,4.6-27.9-19.9-27.9c-24.6,0-134.7,0-154.6,0c-19.9,0-25.9,2.7-25.9,21.9c0,19.2,0,205.7,0,219s2.7,20.6,22.6,20.6&#10;&#9;&#9;&#9;C784.5,340,886.7,340,886.7,340z" style="fill: rgb(255, 255, 255);" transform="matrix(0.9999999999999999, 0, 0, 0.9999999999999999, -294.4626878176102, 131.4966977091907)"/><g transform="matrix(0.9999999999999999, 0, 0, 0.9999999999999999, -294.4626878176102, 131.4966977091907)">
			<path d="M790.5,150.6c-1.8,1.2-5.7,2.5-10.8,2.5c-14.6,0-22.1-12.6-22.1-29.2c0-19.9,10.3-31,23-31c4.9,0,8.7,1.4,10.4,2.6&#10;&#9;&#9;&#9;&#9;l-1.9,10.5c-1.9-1.1-4.6-2.2-8-2.2c-7.6,0-13.4,6.3-13.4,19.3c0,11.7,5,19.1,13.5,19.1c2.9,0,6.1-0.9,7.9-1.9L790.5,150.6z"/>
		</g><path d="M807.3,152.3l-13.5-58.4h10.4l5.1,24.7c1.4,6.9,2.7,13.6,3.7,20.9h0.2c1.1-7,2.4-14,3.8-20.6l5.4-25h10.1l-14.2,58.4&#10;&#9;&#9;&#9;&#9;H807.3z" transform="matrix(0.9999999999999999, 0, 0, 0.9999999999999999, -294.4626878176102, 131.4966977091907)"/><path d="M 756.799988 224.899994 H 927.299988 V 239.499994 H 756.799988 V 224.899994 Z" transform="matrix(0.9999999999999999, 0, 0, 0.9999999999999999, -294.4626878176102, 131.4966977091907)"/><path d="M 756.799988 245.800003 H 927.299988 V 251.800003 H 756.799988 V 245.800003 Z" transform="matrix(0.9999999999999999, 0, 0, 0.9999999999999999, -294.4626878176102, 131.4966977091907)"/><path d="M 756.799988 258.299988 H 927.299988 V 264.299988 H 756.799988 V 258.299988 Z" transform="matrix(0.9999999999999999, 0, 0, 0.9999999999999999, -294.4626878176102, 131.4966977091907)"/><path d="M 756.799988 270.799988 H 927.299988 V 276.799988 H 756.799988 V 270.799988 Z" transform="matrix(0.9999999999999999, 0, 0, 0.9999999999999999, -294.4626878176102, 131.4966977091907)"/><path d="M 756.799988 283.299988 H 889.199982 V 289.299988 H 756.799988 V 283.299988 Z" transform="matrix(0.9999999999999999, 0, 0, 0.9999999999999999, -294.4626878176102, 131.4966977091907)"/><path d="M 756.799988 296.200012 H 877.899986 V 302.200012 H 756.799988 V 296.200012 Z" transform="matrix(0.9999999999999999, 0, 0, 0.9999999999999999, -294.4626878176102, 131.4966977091907)"/><path d="M 756.799988 310.5 H 877.899986 V 316.5 H 756.799988 V 310.5 Z" transform="matrix(0.9999999999999999, 0, 0, 0.9999999999999999, -294.4626878176102, 131.4966977091907)"/><path d="M 757.599976 167.399994 H 928.099976 V 181.999994 H 757.599976 V 167.399994 Z" transform="matrix(0.9999999999999999, 0, 0, 0.9999999999999999, -294.4626878176102, 131.4966977091907)"/><path d="M 757.599976 188.300003 H 928.099976 V 194.300003 H 757.599976 V 188.300003 Z" transform="matrix(0.9999999999999999, 0, 0, 0.9999999999999999, -294.4626878176102, 131.4966977091907)"/><path d="M 757.599976 201.199997 H 882.099976 V 207.199997 H 757.599976 V 201.199997 Z" transform="matrix(0.9999999999999999, 0, 0, 0.9999999999999999, -294.4626878176102, 131.4966977091907)"/>

</svg>