<?xml version="1.0" encoding="iso-8859-1"?>
<!-- Generator: Adobe Illustrator 19.0.0, SVG Export Plug-In . SVG Version: 6.00 Build 0)  -->
<svg version="1.1" id="Layer_1" xmlns="http://www.w3.org/2000/svg" xmlns:xlink="http://www.w3.org/1999/xlink" x="0px" y="0px"
	 viewBox="0 0 512.001 512.001" style="enable-background:new 0 0 512.001 512.001;" xml:space="preserve">
<path style="fill:#86848E;" d="M388.643,81.549H122.827c-5.118,0-9.268,4.149-9.268,9.268v178.048c0,5.118,4.149,9.268,9.268,9.268
	h265.816c5.118,0,9.268-4.149,9.268-9.268V90.817C397.91,85.698,393.761,81.549,388.643,81.549z"/>
<path style="fill:#9E9EA7;" d="M255.735,81.549H122.827c-5.118,0-9.268,4.149-9.268,9.268v178.048c0,5.118,4.149,9.268,9.268,9.268
	h132.907V81.549z"/>
<path style="fill:#3E3D46;" d="M397.91,264.03l-142.187-95.356L113.559,264.42v4.445c0,5.118,4.149,9.268,9.268,9.268h3.552
	l129.366-87.126l129.914,87.126h2.983c5.118,0,9.268-4.149,9.268-9.268v-4.834H397.91z"/>
<path style="fill:#86848E;" d="M256.044,168.89l-0.32-0.214l-142.165,95.745v4.445c0,5.118,4.149,9.268,9.268,9.268h3.552
	l129.366-87.126l0.298,0.2V168.89L256.044,168.89z"/>
<path style="fill:#FF9800;" d="M397.384,87.737c-1.306-3.708-4.81-6.188-8.741-6.188H122.827c-3.931,0-7.435,2.48-8.741,6.188
	s-0.131,7.836,2.931,10.301l127.457,102.557c3.179,2.558,7.179,3.967,11.259,3.967c4.081,0,8.08-1.409,11.259-3.967L394.452,98.037
	C397.515,95.573,398.69,91.444,397.384,87.737z"/>
<path style="fill:#F7DC4D;" d="M254.868,81.549H121.96c-3.931,0-7.435,2.48-8.741,6.188s-0.131,7.836,2.931,10.301l127.457,102.557
	c3.179,2.558,7.179,3.967,11.259,3.967V81.549z"/>
<polyline style="fill:none;stroke:#FFFFFF;stroke-width:27.06;stroke-linecap:round;stroke-miterlimit:10;" points="85.218,380.413 
	255.639,265.638 426.782,380.413 "/>
<path style="fill:#C6C5CA;" d="M402.317,141.888H109.243c-5.643,0-10.218,4.575-10.218,10.218v196.306
	c0,5.643,4.575,10.218,10.218,10.218h293.073c5.643,0,10.218-4.575,10.218-10.218V152.106
	C412.535,146.463,407.96,141.888,402.317,141.888z"/>
<path style="fill:#E1E1E3;" d="M255.78,141.888H109.243c-5.643,0-10.218,4.575-10.218,10.218v196.306
	c0,5.643,4.575,10.218,10.218,10.218H255.78V141.888z"/>
<path style="fill:#797882;" d="M412.535,343.082L255.768,237.948L99.025,343.512v4.901c0,5.643,4.575,10.218,10.218,10.218h3.916
	l142.632-96.06l143.237,96.06h3.289c5.643,0,10.218-4.575,10.218-10.218v-5.331H412.535z"/>
<path style="fill:#C6C5CA;" d="M256.12,238.185l-0.353-0.236L99.025,343.512v4.901c0,5.643,4.575,10.218,10.218,10.218h3.916
	l142.632-96.06l0.329,0.221v-24.606H256.12z"/>
<path style="fill:#9B9AA5;" d="M411.953,148.711c-1.44-4.087-5.303-6.822-9.638-6.822H109.243c-4.335,0-8.197,2.735-9.638,6.822
	c-1.44,4.087-0.145,8.639,3.231,11.357l140.528,113.074c3.506,2.821,7.915,4.374,12.415,4.374c4.5,0,8.909-1.553,12.415-4.374
	l140.527-113.074C412.099,157.35,413.394,152.798,411.953,148.711z"/>
<path style="fill:#C6C5CA;" d="M254.822,141.888H108.286c-4.335,0-8.197,2.735-9.638,6.822c-1.44,4.087-0.145,8.639,3.231,11.357
	l140.528,113.074c3.506,2.821,7.915,4.374,12.415,4.374V141.888z"/>
<path style="fill:#00655B;" d="M440.345,286.061c-6.44,0-11.66,5.22-11.66,11.66v35.561H83.315v-35.561
	c0-6.44-5.22-11.66-11.66-11.66H11.66c-6.44,0-11.66,5.22-11.66,11.66v111.472c0,11.742,9.519,21.26,21.26,21.26h469.481
	c11.742,0,21.26-9.519,21.26-21.26V297.721c0-6.44-5.22-11.66-11.66-11.66H440.345z"/>
<path style="fill:#4AB6BF;" d="M255.78,333.282H83.315v-35.561c0-6.44-5.22-11.66-11.66-11.66H11.66c-6.44,0-11.66,5.22-11.66,11.66
	v111.472c0,11.742,9.519,21.26,21.26,21.26h234.52L255.78,333.282L255.78,333.282z"/>
<g>
</g>
<g>
</g>
<g>
</g>
<g>
</g>
<g>
</g>
<g>
</g>
<g>
</g>
<g>
</g>
<g>
</g>
<g>
</g>
<g>
</g>
<g>
</g>
<g>
</g>
<g>
</g>
<g>
</g>
</svg>
